<svg width="23" height="22" viewBox="0 0 23 22" fill="none" xmlns="http://www.w3.org/2000/svg">
<path d="M2.60661 0.3934C2.21611 0.00289989 1.58291 0.00289989 1.19241 0.3934C0.801911 0.7839 0.801911 1.4171 1.19241 1.8076L2.60661 0.3934ZM20.9914 21.6066C21.3819 21.9971 22.0151 21.9971 22.4056 21.6066C22.7961 21.2161 22.7961 20.5829 22.4056 20.1924L20.9914 21.6066ZM1.19241 20.1924C0.801911 20.5829 0.801911 21.2161 1.19241 21.6066C1.58291 21.9971 2.21611 21.9971 2.60661 21.6066L1.19241 20.1924ZM22.4056 1.8076C22.7961 1.4171 22.7961 0.7839 22.4056 0.3934C22.0151 0.00289989 21.3819 0.00289989 20.9914 0.3934L22.4056 1.8076ZM1.19241 1.8076L20.9914 21.6066L22.4056 20.1924L2.60661 0.3934L1.19241 1.8076ZM2.60661 21.6066L22.4056 1.8076L20.9914 0.3934L1.19241 20.1924L2.60661 21.6066Z" fill="#FF0000"/>
</svg>
