<svg width="34" height="34" viewBox="0 0 34 34" fill="none" xmlns="http://www.w3.org/2000/svg">
<path d="M4.2 0.199951C2.00038 0.199951 0.199997 2.00034 0.199997 4.19995V29.8C0.199997 31.9996 2.00038 33.8 4.2 33.8H29.8C31.9996 33.8 33.8 31.9996 33.8 29.8V4.19995C33.8 2.00034 31.9996 0.199951 29.8 0.199951H4.2ZM4.2 1.79995H29.8C31.1348 1.79995 32.2 2.86517 32.2 4.19995V29.8C32.2 31.1347 31.1348 32.2 29.8 32.2H4.2C2.86521 32.2 1.8 31.1347 1.8 29.8V4.19995C1.8 2.86517 2.86521 1.79995 4.2 1.79995ZM15.7172 9.7937C14.8712 9.79176 14.1168 9.83904 13.4422 10.1703L13.4406 10.1718C13.1117 10.3339 12.8799 10.5397 12.6953 10.7843C12.603 10.9066 12.5085 11.0164 12.4578 11.2953C12.4325 11.4347 12.4183 11.6606 12.5641 11.9046C12.7099 12.1487 13.003 12.2874 13.1906 12.3125C13.3209 12.3298 13.6151 12.455 13.6422 12.4921L13.6437 12.4953C13.6437 12.4953 13.7578 12.7929 13.7906 13.0578C13.8234 13.3227 13.8219 13.5375 13.8219 13.5375C13.8215 13.5588 13.822 13.5802 13.8234 13.6015C13.8234 13.6015 13.8698 14.2956 13.839 15.0125C13.8268 15.2982 13.7899 15.5524 13.7515 15.7796C13.4667 15.4651 13.0469 14.8955 12.4406 13.8453C11.7681 12.6795 11.2328 11.6343 11.2328 11.6343C11.2047 11.5433 11.1053 11.26 10.7172 10.975C10.2929 10.6623 9.8828 10.6156 9.8828 10.6156C9.83135 10.6053 9.77901 10.6 9.72655 10.6L6.57342 10.6015C6.57342 10.6015 6.38437 10.5906 6.1578 10.6218C5.93122 10.6531 5.59005 10.6785 5.26093 11.0687L5.25937 11.0703C4.96521 11.4217 4.98301 11.8102 5.01874 12.0296C5.05447 12.2491 5.13437 12.4156 5.13437 12.4156C5.13591 12.4187 5.13747 12.4218 5.13905 12.425C5.13905 12.425 7.71817 17.8476 10.6328 21.0406C12.7493 23.359 14.9218 23.3984 16.7141 23.3984H18.0516C18.393 23.3984 18.7019 23.385 19.0437 23.1859C19.3856 22.9867 19.6156 22.5019 19.6156 22.1656C19.6156 21.8132 19.6682 21.5361 19.7328 21.3937C19.7782 21.2936 19.8142 21.2575 19.8703 21.2281C19.8822 21.2356 19.8745 21.2312 19.9078 21.2547C20.041 21.3483 20.2609 21.5618 20.5 21.8281C20.9782 22.3607 21.521 23.0912 22.25 23.5922C22.7722 23.9513 23.2656 24.1108 23.6406 24.1687C23.8756 24.205 24.0581 24.198 24.1875 24.1875L27.175 24.2C27.1927 24.2 27.2104 24.1995 27.2281 24.1984C27.2281 24.1984 27.7429 24.2044 28.2781 23.8843C28.5457 23.7243 28.8614 23.4209 28.9641 22.9781C29.0667 22.5353 28.9377 22.0766 28.6859 21.6578V21.6562C28.7296 21.7287 28.6463 21.5798 28.5609 21.4406C28.4755 21.3014 28.3515 21.1139 28.1734 20.8812C27.8173 20.4159 27.2469 19.7647 26.325 18.9062H26.3234C25.8552 18.4706 25.539 18.1621 25.4094 17.9906C25.2798 17.8191 25.3223 17.9092 25.3312 17.8656C25.3492 17.7784 25.9112 16.9677 27.0547 15.4406C27.7498 14.5111 28.2376 13.8132 28.5594 13.2328C28.8811 12.6523 29.1131 12.1496 28.9516 11.5343L28.95 11.5312C28.8783 11.2611 28.6824 11.0122 28.4812 10.8765C28.2801 10.7409 28.0894 10.6878 27.9187 10.6547C27.5775 10.5883 27.2797 10.6 27.0031 10.6C26.4233 10.6 23.8508 10.6203 23.6391 10.6203C23.3889 10.6203 22.9752 10.7341 22.7922 10.8437C22.3321 11.1206 22.2 11.4843 22.2 11.4843C22.1917 11.4997 22.1839 11.5153 22.1766 11.5312C22.1766 11.5312 21.6459 12.708 20.9625 13.8703C20.2702 15.0493 19.7588 15.6116 19.45 15.8718C19.4415 15.8256 19.443 15.8631 19.4375 15.7984C19.4098 15.4692 19.4406 15.0142 19.4406 14.5703C19.4406 13.3747 19.542 12.5379 19.4875 11.7984C19.4603 11.4287 19.3918 11.0474 19.1484 10.6968C18.9051 10.3463 18.5002 10.1186 18.1 10.0218C17.8599 9.96392 17.5862 9.81327 16.5953 9.80309H16.5938C16.2907 9.80006 15.9992 9.79435 15.7172 9.7937ZM16.5781 11.4031C17.4549 11.4121 17.2365 11.4604 17.7234 11.5781C17.8744 11.6146 17.8379 11.6144 17.8344 11.6093C17.8309 11.6043 17.8752 11.6868 17.8922 11.9171C17.9261 12.3779 17.8406 13.2939 17.8406 14.5703C17.8406 14.9183 17.7986 15.415 17.8422 15.9328C17.8857 16.4505 18.0141 17.115 18.6328 17.5156C18.9261 17.7057 19.2666 17.7177 19.5578 17.6453C19.849 17.5729 20.1132 17.4221 20.3906 17.2C20.9455 16.7557 21.5643 16.0059 22.3422 14.6812C23.0692 13.4447 23.5981 12.2671 23.6156 12.2281C23.6191 12.2253 23.6225 12.2234 23.6266 12.2203C23.6366 12.2204 23.6262 12.2203 23.6391 12.2203C23.9377 12.2203 26.4629 12.2 27.0031 12.2C27.1292 12.2 27.1751 12.2076 27.275 12.2109C27.2479 12.3015 27.278 12.2437 27.1594 12.4578C26.9105 12.9067 26.4519 13.5739 25.7734 14.4812C24.6585 15.9701 23.9675 16.5535 23.7641 17.5421C23.6623 18.0364 23.853 18.5844 24.1328 18.9546C24.4126 19.3249 24.7658 19.6422 25.2344 20.0781C26.102 20.886 26.611 21.473 26.9031 21.8547C27.0492 22.0455 27.1412 22.1833 27.1984 22.2765C27.2557 22.3697 27.2415 22.3599 27.3156 22.4828C27.3644 22.5645 27.3464 22.5146 27.3547 22.539C27.2588 22.5661 27.1426 22.5986 27.1359 22.6L24.1938 22.5875C24.1408 22.5874 24.0879 22.5927 24.0359 22.6031C24.0359 22.6031 24.0433 22.6117 23.8859 22.5875C23.7286 22.5632 23.4782 22.4951 23.1563 22.2734C22.7676 22.0063 22.2236 21.3529 21.6906 20.7593C21.4241 20.4625 21.1584 20.1775 20.8281 19.9453C20.4979 19.713 20.0038 19.4947 19.4703 19.6624C18.9165 19.8363 18.4855 20.2685 18.275 20.7328C18.1183 21.0783 18.1056 21.4393 18.0813 21.7984C18.0547 21.8004 18.0853 21.7984 18.0516 21.7984H16.7141C14.8967 21.7984 13.6063 21.9241 11.8141 19.9609C9.40328 17.3198 7.1945 12.9256 6.83438 12.2015L9.60938 12.2C9.65816 12.2187 9.76255 12.2579 9.76876 12.2625L9.77189 12.2656C9.67045 12.1914 9.77657 12.2953 9.77657 12.2953C9.78637 12.3192 9.79732 12.3427 9.80939 12.3656C9.80939 12.3656 10.3593 13.4398 11.0547 14.6453C11.7369 15.827 12.234 16.5653 12.7141 17.0531C12.9541 17.297 13.1964 17.4926 13.5203 17.6031C13.8442 17.7136 14.2624 17.673 14.5438 17.5187C15.1185 17.2041 15.1957 16.74 15.2891 16.3343C15.3826 15.9281 15.4198 15.4953 15.4375 15.0812C15.472 14.2775 15.4233 13.582 15.4203 13.539C15.4205 13.524 15.4242 13.2339 15.3782 12.8625C15.331 12.4821 15.2785 12.0171 14.9344 11.5484L14.9328 11.5468C14.9304 11.5436 14.9274 11.5438 14.925 11.5406C15.38 11.4753 15.7693 11.395 16.5781 11.4031ZM23.6359 12.1875L23.625 12.2125C23.6233 12.2134 23.6238 12.2113 23.6219 12.2125C23.6253 12.206 23.6359 12.1875 23.6359 12.1875Z" fill="white"/>
</svg>
