<svg width="73" height="96" viewBox="0 0 73 96" fill="none" xmlns="http://www.w3.org/2000/svg">
<path d="M5 36V81.5L30.5 89L36 93.5L43.5 89L68 81.5V36H58.5L43.5 22.5V15.5H29.5V22.5L14.5 36C11.3333 35.8333 5 35.6 5 36Z" fill="#FF0000"/>
<path d="M1.89443 14.0559C0.894427 35.0559 -0.105573 77.8559 3.89443 81.0559C8.89443 85.0559 27.8944 87.0559 31.8944 90.0559C35.0944 92.4559 36.2277 94.3892 36.3944 95.0559" stroke="#FF0000"/>
<path d="M70.8944 14.0559C71.8944 35.0559 72.8944 77.8559 68.8944 81.0559C63.8944 85.0559 44.8944 87.0559 40.8944 90.0559C37.6944 92.4559 36.5611 94.3892 36.3944 95.0559" stroke="#FF0000"/>
<path d="M1.89453 14.5556C34.8945 -15.9444 70.8945 14.5556 70.8945 14.5556" stroke="#FF0000"/>
<path d="M38.4999 37.5C36.1666 37.1667 31.6999 36 32.4999 34C33.4999 31.5 33.5 27 35.9999 28.5C38.4999 30 46.9999 25 46.4999 32C45.9999 39 51.4999 43 48.4999 49.5C46.0999 54.7 48.8333 56.3333 50.4999 56.5L55.9999 59C57.1666 59.5 59.3999 61.5 58.9999 65.5C58.4999 70.5 59.4999 71.5 60.9999 71.5C62.1999 71.5 62.8333 78.8333 62.9999 82.5C62.3333 83.1667 60.4999 84.3 58.4999 83.5C56.4999 82.7 58.6666 81.5 59.9999 81L58.4999 74.5C56.8333 75 53.1999 74.8 51.9999 70C50.7999 65.2 48.4999 70.6667 47.4999 74C48.4999 74 50.2999 74.7 49.4999 77.5C48.4999 81 51.4999 82.5 45.4999 82.5H41.9999C42.4999 82.3333 43.8999 81.4 45.4999 79C47.4999 76 38.4999 76 41.9999 71.5C44.7999 67.9 37.8333 72 33.9999 74.5L30.4999 82C27.8333 83.3333 22.4999 85.5 22.4999 83.5C22.4999 81.5 25.8333 80.3333 27.4999 80L30.4999 74L16.9999 82.5C14.6666 83 10.1999 83.6 10.9999 82C11.9999 80 23.5 75.5 23.5 71C23.5 66.5 11.5 69 9.5 64.5C8.67267 62.6385 8.16619 61.8554 7.86995 61.6254C7.72812 61.7516 7.60427 61.8783 7.5 62C7.5 61.6781 7.59328 61.4105 7.86995 61.6254C9.08828 60.5409 11.6337 59.492 14.5 62C17.7 64.8 15.8333 58.5 14.5 55C14.8333 52.1667 16.8 46.8 22 48C27.2 49.2 26.8333 47.8333 26 47C29.4999 46.5 36.8998 43.9 38.4999 37.5Z" fill="#F2D60C" stroke="#F2D60C" stroke-width="2"/>
<path d="M58 61.5C61.3333 58 64.8 57.2 58 52" stroke="#F2D60C" stroke-width="2"/>
</svg>
