<svg width="40" height="40" viewBox="0 0 40 40" fill="none" xmlns="http://www.w3.org/2000/svg">
<rect width="40" height="40" fill="white"/>
<path d="M7.2 3.19995C5.00038 3.19995 3.2 5.00034 3.2 7.19995V32.8C3.2 34.9996 5.00038 36.8 7.2 36.8H32.8C34.9996 36.8 36.8 34.9996 36.8 32.8V7.19995C36.8 5.00034 34.9996 3.19995 32.8 3.19995H7.2ZM7.2 4.79995H32.8C34.1348 4.79995 35.2 5.86517 35.2 7.19995V32.8C35.2 34.1347 34.1348 35.2 32.8 35.2H7.2C5.86521 35.2 4.8 34.1347 4.8 32.8V7.19995C4.8 5.86517 5.86521 4.79995 7.2 4.79995ZM18.7172 12.7937C17.8712 12.7918 17.1168 12.839 16.4422 13.1703L16.4406 13.1718C16.1117 13.3339 15.8799 13.5397 15.6953 13.7843C15.603 13.9066 15.5085 14.0164 15.4578 14.2953C15.4325 14.4347 15.4183 14.6606 15.5641 14.9046C15.7099 15.1487 16.003 15.2874 16.1906 15.3125C16.3209 15.3298 16.6151 15.455 16.6422 15.4921L16.6437 15.4953C16.6437 15.4953 16.7578 15.7929 16.7906 16.0578C16.8234 16.3227 16.8219 16.5375 16.8219 16.5375C16.8215 16.5588 16.822 16.5802 16.8234 16.6015C16.8234 16.6015 16.8698 17.2956 16.839 18.0125C16.8268 18.2982 16.7899 18.5524 16.7515 18.7796C16.4667 18.4651 16.0469 17.8955 15.4406 16.8453C14.7681 15.6795 14.2328 14.6343 14.2328 14.6343C14.2047 14.5433 14.1053 14.26 13.7172 13.975C13.2929 13.6623 12.8828 13.6156 12.8828 13.6156C12.8314 13.6053 12.779 13.6 12.7265 13.6L9.57342 13.6015C9.57342 13.6015 9.38437 13.5906 9.1578 13.6218C8.93122 13.6531 8.59005 13.6785 8.26093 14.0687L8.25937 14.0703C7.96521 14.4217 7.98301 14.8102 8.01874 15.0296C8.05447 15.2491 8.13437 15.4156 8.13437 15.4156C8.13591 15.4187 8.13747 15.4218 8.13905 15.425C8.13905 15.425 10.7182 20.8476 13.6328 24.0406C15.7494 26.359 17.9218 26.3984 19.7141 26.3984H21.0516C21.393 26.3984 21.7019 26.385 22.0437 26.1859C22.3856 25.9867 22.6156 25.5019 22.6156 25.1656C22.6156 24.8132 22.6682 24.5361 22.7328 24.3937C22.7782 24.2936 22.8142 24.2575 22.8703 24.2281C22.8822 24.2356 22.8745 24.2312 22.9078 24.2547C23.041 24.3483 23.2609 24.5618 23.5 24.8281C23.9782 25.3607 24.521 26.0912 25.25 26.5922C25.7722 26.9513 26.2656 27.1108 26.6406 27.1687C26.8756 27.205 27.0581 27.198 27.1875 27.1875L30.175 27.2C30.1927 27.2 30.2104 27.1995 30.2281 27.1984C30.2281 27.1984 30.7429 27.2044 31.2781 26.8843C31.5457 26.7243 31.8614 26.4209 31.9641 25.9781C32.0667 25.5353 31.9377 25.0766 31.6859 24.6578V24.6562C31.7296 24.7287 31.6463 24.5798 31.5609 24.4406C31.4755 24.3014 31.3515 24.1139 31.1734 23.8812C30.8173 23.4159 30.2469 22.7647 29.325 21.9062H29.3234C28.8552 21.4706 28.539 21.1621 28.4094 20.9906C28.2798 20.8191 28.3223 20.9092 28.3312 20.8656C28.3492 20.7784 28.9112 19.9677 30.0547 18.4406C30.7498 17.5111 31.2376 16.8132 31.5594 16.2328C31.8811 15.6523 32.1131 15.1496 31.9516 14.5343L31.95 14.5312C31.8783 14.2611 31.6824 14.0122 31.4812 13.8765C31.2801 13.7409 31.0894 13.6878 30.9187 13.6547C30.5775 13.5883 30.2797 13.6 30.0031 13.6C29.4233 13.6 26.8508 13.6203 26.6391 13.6203C26.3889 13.6203 25.9752 13.7341 25.7922 13.8437C25.3321 14.1206 25.2 14.4843 25.2 14.4843C25.1917 14.4997 25.1839 14.5153 25.1766 14.5312C25.1766 14.5312 24.6459 15.708 23.9625 16.8703C23.2702 18.0493 22.7588 18.6116 22.45 18.8718C22.4415 18.8256 22.443 18.8631 22.4375 18.7984C22.4098 18.4692 22.4406 18.0142 22.4406 17.5703C22.4406 16.3747 22.542 15.5379 22.4875 14.7984C22.4603 14.4287 22.3918 14.0474 22.1484 13.6968C21.9051 13.3463 21.5002 13.1186 21.1 13.0218C20.8599 12.9639 20.5862 12.8133 19.5953 12.8031H19.5938C19.2907 12.8001 18.9992 12.7944 18.7172 12.7937ZM19.5781 14.4031C20.4549 14.4121 20.2365 14.4604 20.7234 14.5781C20.8744 14.6146 20.8379 14.6144 20.8344 14.6093C20.8309 14.6043 20.8752 14.6868 20.8922 14.9171C20.9261 15.3779 20.8406 16.2939 20.8406 17.5703C20.8406 17.9183 20.7986 18.415 20.8422 18.9328C20.8857 19.4505 21.0141 20.115 21.6328 20.5156C21.9261 20.7057 22.2666 20.7177 22.5578 20.6453C22.849 20.5729 23.1132 20.4221 23.3906 20.2C23.9455 19.7557 24.5643 19.0059 25.3422 17.6812C26.0692 16.4447 26.5981 15.2671 26.6156 15.2281C26.6191 15.2253 26.6225 15.2234 26.6266 15.2203C26.6366 15.2204 26.6262 15.2203 26.6391 15.2203C26.9377 15.2203 29.4629 15.2 30.0031 15.2C30.1292 15.2 30.1751 15.2076 30.275 15.2109C30.2479 15.3015 30.278 15.2437 30.1594 15.4578C29.9105 15.9067 29.4519 16.5739 28.7734 17.4812C27.6585 18.9701 26.9675 19.5535 26.7641 20.5421C26.6623 21.0364 26.853 21.5844 27.1328 21.9546C27.4126 22.3249 27.7658 22.6422 28.2344 23.0781C29.102 23.886 29.611 24.473 29.9031 24.8547C30.0492 25.0455 30.1412 25.1833 30.1984 25.2765C30.2557 25.3697 30.2415 25.3599 30.3156 25.4828C30.3644 25.5645 30.3464 25.5146 30.3547 25.539C30.2588 25.5661 30.1426 25.5986 30.1359 25.6L27.1938 25.5875C27.1408 25.5874 27.0879 25.5927 27.0359 25.6031C27.0359 25.6031 27.0433 25.6117 26.8859 25.5875C26.7286 25.5632 26.4782 25.4951 26.1563 25.2734C25.7676 25.0063 25.2236 24.3529 24.6906 23.7593C24.4241 23.4625 24.1584 23.1775 23.8281 22.9453C23.4979 22.713 23.0038 22.4947 22.4703 22.6624C21.9165 22.8363 21.4855 23.2685 21.275 23.7328C21.1183 24.0783 21.1056 24.4393 21.0813 24.7984C21.0547 24.8004 21.0853 24.7984 21.0516 24.7984H19.7141C17.8967 24.7984 16.6063 24.9241 14.8141 22.9609C12.4033 20.3198 10.1945 15.9256 9.83438 15.2015L12.6094 15.2C12.6582 15.2187 12.7625 15.2579 12.7688 15.2625L12.7719 15.2656C12.6705 15.1914 12.7766 15.2953 12.7766 15.2953C12.7864 15.3192 12.7973 15.3427 12.8094 15.3656C12.8094 15.3656 13.3593 16.4398 14.0547 17.6453C14.7369 18.827 15.234 19.5653 15.7141 20.0531C15.9541 20.297 16.1964 20.4926 16.5203 20.6031C16.8442 20.7136 17.2624 20.673 17.5438 20.5187C18.1185 20.2041 18.1957 19.74 18.2891 19.3343C18.3826 18.9281 18.4198 18.4953 18.4375 18.0812C18.472 17.2775 18.4233 16.582 18.4203 16.539C18.4205 16.524 18.4242 16.2339 18.3782 15.8625C18.331 15.4821 18.2785 15.0171 17.9344 14.5484L17.9328 14.5468C17.9304 14.5436 17.9274 14.5438 17.925 14.5406C18.38 14.4753 18.7693 14.395 19.5781 14.4031ZM26.6359 15.1875L26.625 15.2125C26.6233 15.2134 26.6238 15.2113 26.6219 15.2125C26.6253 15.206 26.6359 15.1875 26.6359 15.1875Z" fill="#0075FF"/>
</svg>
