<svg width="30" height="24" viewBox="0 0 30 24" fill="none" xmlns="http://www.w3.org/2000/svg">
<path d="M11.875 0.625006C5.67187 0.625006 0.625 5.67188 0.625 11.875C0.625 18.0781 5.67187 23.125 11.875 23.125C14.4558 23.125 16.8289 22.2421 18.7292 20.7751L26.9055 28.9514C27.4705 29.5164 28.3864 29.5164 28.9514 28.9514C29.5164 28.3864 29.5164 27.4705 28.9514 26.9055L20.7751 18.7292C22.2421 16.8289 23.125 14.4558 23.125 11.875C23.125 5.67187 18.0781 0.625006 11.875 0.625006ZM11.875 3.12501C16.6994 3.12501 20.625 7.05063 20.625 11.875C20.625 16.6994 16.6994 20.625 11.875 20.625C7.05062 20.625 3.125 16.6994 3.125 11.875C3.125 7.05063 7.05062 3.12501 11.875 3.12501Z" fill="#FF0000"/>
</svg>
