<svg width="80" height="80" viewBox="0 0 80 80" fill="none" xmlns="http://www.w3.org/2000/svg">
<path d="M14.4 6.39999C10.0008 6.39999 6.40002 10.0008 6.40002 14.4V65.6C6.40002 69.9992 10.0008 73.6 14.4 73.6H65.6C69.9993 73.6 73.6 69.9992 73.6 65.6V14.4C73.6 10.0008 69.9993 6.39999 65.6 6.39999H14.4ZM14.4 9.59999H65.6C68.2696 9.59999 70.4 11.7304 70.4 14.4V65.6C70.4 68.2696 68.2696 70.4 65.6 70.4H14.4C11.7305 70.4 9.60002 68.2696 9.60002 65.6V14.4C9.60002 11.7304 11.7305 9.59999 14.4 9.59999ZM37.4344 25.5875C35.7424 25.5836 34.2337 25.6782 32.8844 26.3406L32.8813 26.3437C32.2235 26.6678 31.7598 27.0795 31.3907 27.5687C31.2061 27.8134 31.017 28.033 30.9157 28.5906C30.865 28.8695 30.8366 29.3213 31.1282 29.8094C31.4198 30.2974 32.0061 30.575 32.3813 30.625C32.6419 30.6597 33.2301 30.9101 33.2844 30.9844L33.2875 30.9906C33.2875 30.9906 33.5156 31.5858 33.5813 32.1156C33.6469 32.6454 33.6438 33.075 33.6438 33.075C33.6431 33.1178 33.6441 33.1605 33.6469 33.2031C33.6469 33.2031 33.7396 34.5912 33.6781 36.025C33.6536 36.5965 33.5797 37.1048 33.5031 37.5594C32.9334 36.9303 32.0938 35.7911 30.8813 33.6906C29.5362 31.3591 28.4656 29.2688 28.4656 29.2688C28.4094 29.0867 28.2106 28.5201 27.4344 27.95C26.5858 27.3246 25.7656 27.2313 25.7656 27.2313C25.6627 27.2106 25.5581 27.2002 25.4531 27.2L19.1469 27.2031C19.1469 27.2031 18.7688 27.1813 18.3156 27.2438C17.8625 27.3063 17.1801 27.3571 16.5219 28.1375L16.5188 28.1406C15.9305 28.8436 15.966 29.6205 16.0375 30.0594C16.109 30.4982 16.2688 30.8312 16.2688 30.8312C16.2718 30.8375 16.275 30.8438 16.2781 30.85C16.2781 30.85 21.4364 41.6952 27.2656 48.0812C31.4987 52.7181 35.8436 52.7969 39.4281 52.7969H42.1031C42.7861 52.7969 43.4038 52.7702 44.0875 52.3719C44.7712 51.9736 45.2313 51.0039 45.2313 50.3313C45.2313 49.6264 45.3365 49.0723 45.4656 48.7875C45.5564 48.5872 45.6283 48.5151 45.7406 48.4563C45.7644 48.4713 45.7491 48.4626 45.8156 48.5094C46.082 48.6967 46.5218 49.1237 47 49.6563C47.9564 50.7215 49.042 52.1825 50.5 53.1844C51.5445 53.9028 52.5311 54.2218 53.2813 54.3375C53.7512 54.41 54.1162 54.3961 54.375 54.375L60.35 54.4C60.3855 54.4002 60.4209 54.3991 60.4563 54.3969C60.4563 54.3969 61.4858 54.4089 62.5563 53.7688C63.0915 53.4487 63.7228 52.8418 63.9281 51.9563C64.1335 51.0708 63.8754 50.1532 63.3719 49.3157V49.3125C63.4593 49.4575 63.2927 49.1596 63.1219 48.8813C62.9511 48.603 62.703 48.2279 62.3469 47.7625C61.6347 46.8319 60.4939 45.5295 58.65 43.8125H58.6469C57.7104 42.9412 57.078 42.3243 56.8188 41.9813C56.5596 41.6383 56.6446 41.8185 56.6625 41.7313C56.6984 41.5569 57.8224 39.9355 60.1094 36.8813C61.4996 35.0223 62.4753 33.6266 63.1188 32.4657C63.7623 31.3048 64.2262 30.2994 63.9031 29.0688L63.9 29.0625C63.7566 28.5223 63.3648 28.0244 62.9625 27.7531C62.5602 27.4819 62.1788 27.3758 61.8375 27.3094C61.155 27.1766 60.5594 27.2 60.0063 27.2C58.8466 27.2 53.7016 27.2407 53.2781 27.2407C52.7778 27.2407 51.9504 27.4682 51.5844 27.6875C50.6642 28.2413 50.4 28.9688 50.4 28.9688C50.3834 28.9995 50.3678 29.0308 50.3531 29.0625C50.3531 29.0625 49.2918 31.416 47.925 33.7407C46.5404 36.0986 45.5175 37.2232 44.9 37.7438C44.883 37.6512 44.886 37.7264 44.875 37.5969C44.8197 36.9384 44.8813 36.0285 44.8813 35.1406C44.8813 32.7494 45.084 31.0759 44.975 29.5969C44.9206 28.8574 44.7836 28.0949 44.2969 27.3938C43.8102 26.6927 43.0004 26.2372 42.2 26.0438C41.7198 25.9279 41.1724 25.6266 39.1907 25.6063H39.1875C38.5815 25.6002 37.9984 25.5888 37.4344 25.5875ZM39.1563 28.8063C40.9098 28.8243 40.473 28.9208 41.4469 29.1563C41.7489 29.2292 41.6758 29.2288 41.6688 29.2187C41.6617 29.2087 41.7505 29.3736 41.7844 29.8344C41.8523 30.7558 41.6813 32.5879 41.6813 35.1406C41.6813 35.8367 41.5973 36.8301 41.6844 37.8656C41.7715 38.9012 42.0283 40.2301 43.2657 41.0313C43.8522 41.4115 44.5332 41.4354 45.1157 41.2907C45.6981 41.1459 46.2265 40.8443 46.7813 40.4C47.891 39.5115 49.1287 38.012 50.6844 35.3625C52.1385 32.8894 53.1962 30.5344 53.2313 30.4563C53.2382 30.4508 53.2451 30.447 53.2532 30.4406C53.2732 30.4409 53.2524 30.4406 53.2782 30.4406C53.8755 30.4406 58.9259 30.4 60.0063 30.4C60.2585 30.4 60.3503 30.4152 60.55 30.4219C60.4958 30.6031 60.5561 30.4875 60.3188 30.9156C59.8211 31.8135 58.9039 33.1479 57.5469 34.9625C55.3171 37.9403 53.9351 39.1071 53.5282 41.0844C53.3247 42.073 53.706 43.1688 54.2657 43.9094C54.8253 44.65 55.5317 45.2844 56.4688 46.1563C58.2041 47.7721 59.2221 48.9461 59.8063 49.7094C60.0984 50.0911 60.2825 50.3667 60.3969 50.5531C60.5113 50.7396 60.4831 50.7199 60.6313 50.9656C60.7289 51.1292 60.6929 51.0294 60.7094 51.0781C60.5176 51.1322 60.2852 51.1973 60.2719 51.2L54.3875 51.175C54.2816 51.1749 54.1758 51.1854 54.0719 51.2063C54.0719 51.2063 54.0866 51.2236 53.7719 51.175C53.4571 51.1264 52.9565 50.9902 52.3125 50.5469C51.5353 50.0128 50.4473 48.706 49.3813 47.5187C48.8483 46.9251 48.3167 46.3551 47.6563 45.8906C46.9958 45.4262 46.0076 44.9894 44.9407 45.325C43.8331 45.6728 42.971 46.5371 42.55 47.4656C42.2367 48.1568 42.2113 48.8787 42.1625 49.5969C42.1094 49.6009 42.1705 49.5969 42.1032 49.5969H39.4282C35.7935 49.5969 33.2127 49.8482 29.6282 45.9219C24.8066 40.6398 20.389 31.8512 19.6688 30.4031L25.2188 30.4C25.3163 30.4374 25.5251 30.5158 25.5375 30.525L25.5438 30.5313C25.3409 30.383 25.5532 30.5906 25.5532 30.5906C25.5728 30.6385 25.5947 30.6855 25.6188 30.7313C25.6188 30.7313 26.7185 32.8797 28.1094 35.2906C29.4738 37.6541 30.468 39.1306 31.4282 40.1063C31.9083 40.5941 32.3929 40.9853 33.0407 41.2063C33.6884 41.4272 34.5249 41.3462 35.0876 41.0375C36.2371 40.4083 36.3915 39.4802 36.5782 38.6688C36.7651 37.8562 36.8396 36.9906 36.8751 36.1625C36.9439 34.5551 36.8465 33.164 36.8407 33.0781C36.841 33.048 36.8484 32.4679 36.7563 31.725C36.6621 30.9643 36.557 30.0342 35.8688 29.0969L35.8657 29.0938C35.8609 29.0872 35.8549 29.0877 35.8501 29.0813C36.7601 28.9508 37.5387 28.7901 39.1563 28.8063ZM53.2719 30.375L53.25 30.425C53.2466 30.4269 53.2477 30.4227 53.2438 30.425C53.2505 30.4121 53.2719 30.375 53.2719 30.375Z" fill="#0075FF"/>
</svg>
